HIERARCHY
ROOT Hips
{
	OFFSET 0.000000 0.000000 0.000000
	CHANNELS 6 Xposition Yposition Zposition Zrotation Yrotation Xrotation 
	JOINT LowerBack
	{
		OFFSET 0.000000 0.000000 0.000000
		CHANNELS 3 Zrotation Yrotation Xrotation
		JOINT Spine
		{
			OFFSET 0.028270 2.035590 -0.193380
			CHANNELS 3 Zrotation Yrotation Xrotation
			JOINT Spine1
			{
				OFFSET 0.056720 2.048850 -0.042750
				CHANNELS 3 Zrotation Yrotation Xrotation
				JOINT Neck
				{
					OFFSET 0.000000 0.000000 0.000000
					CHANNELS 3 Zrotation Yrotation Xrotation
					JOINT Neck1
					{
						OFFSET -0.054170 1.746240 0.172020
						CHANNELS 3 Zrotation Yrotation Xrotation
						JOINT Head
						{
							OFFSET 0.104070 1.761360 -0.123970
							CHANNELS 3 Zrotation Yrotation Xrotation
							End Site
							{
								OFFSET 0.000000 0.000000 0.000000
							}
						}
					}
				}
				JOINT LeftShoulder
				{
					OFFSET 0.000000 0.000000 0.000000
					CHANNELS 3 Zrotation Yrotation Xrotation
					JOINT LeftArm
					{
						OFFSET 3.362410 1.200890 -0.311210
						CHANNELS 3 Zrotation Yrotation Xrotation
						JOINT LeftForeArm
						{
							OFFSET 4.983000 -0.000000 -0.000000
							CHANNELS 3 Zrotation Yrotation Xrotation
							JOINT LeftHand
							{
								OFFSET 3.483560 -0.000000 -0.000000
								CHANNELS 3 Zrotation Yrotation Xrotation
								JOINT LeftFingerBase
								{
									OFFSET 0.000000 0.000000 0.000000
									CHANNELS 3 Zrotation Yrotation Xrotation
									JOINT LeftHandIndex1
									{
										OFFSET 0.715260 -0.000000 -0.000000
										CHANNELS 3 Zrotation Yrotation Xrotation
										End Site
										{
											OFFSET 0.000000 0.000000 0.000000
										}
									}
								}
								JOINT LThumb
								{
									OFFSET 0.000000 0.000000 0.000000
									CHANNELS 3 Zrotation Yrotation Xrotation
									End Site
									{
										OFFSET 0.000000 0.000000 0.000000
									}
								}
							}
						}
					}
				}
				JOINT RightShoulder
				{
					OFFSET 0.000000 0.000000 0.000000
					CHANNELS 3 Zrotation Yrotation Xrotation
					JOINT RightArm
					{
						OFFSET -3.136600 1.374050 -0.404650
						CHANNELS 3 Zrotation Yrotation Xrotation
						JOINT RightForeArm
						{
							OFFSET -5.241900 -0.000000 -0.000000
							CHANNELS 3 Zrotation Yrotation Xrotation
							JOINT RightHand
							{
								OFFSET -3.444170 -0.000000 -0.000000
								CHANNELS 3 Zrotation Yrotation Xrotation
								JOINT RightFingerBase
								{
									OFFSET 0.000000 0.000000 0.000000
									CHANNELS 3 Zrotation Yrotation Xrotation
									JOINT RightHandIndex1
									{
										OFFSET -0.622530 -0.000000 -0.000000
										CHANNELS 3 Zrotation Yrotation Xrotation
										End Site
										{
											OFFSET 0.000000 0.000000 0.000000
										}
									}
								}
								JOINT RThumb
								{
									OFFSET 0.000000 0.000000 0.000000
									CHANNELS 3 Zrotation Yrotation Xrotation
									End Site
									{
										OFFSET 0.000000 0.000000 0.000000
									}
								}
							}
						}
					}
				}
			}
		}
	}
}
}
MOTION
Frames: 18
Frame Time: 0.008333
2.783850 17.110021 1.126678 -40.750062 -60.772708 26.595638 -1.173520 -6.435697 7.656275 -0.739192 -6.361344 -0.692308 -5.253090 -6.178185 1.412678 8.407296 -18.991010 -5.188296 -1.064108 -0.105844 0.479794 0.000000 0.000000 0.000000 6.837546 9.295260 -1.231226 -63.374100 15.797098 -1.825400 -2.171973 -50.210333 0.001932 -0.450889 0.074575 0.000665 -0.069592 0.113475 0.000000 0.000000 0.000000 0.000000 0.000000 0.000000 0.000000 6.272732 -18.683551 -0.592561 75.139833 -20.100038 -15.120550 4.517186 15.061178 0.014995 6.636991 6.839190 0.391876 0.107101 -0.014778 -0.000000 0.000000 0.000000 0.000000 0.000000 0.000000 0.000000 
2.772297 17.108984 1.136853 -41.075601 -60.761756 26.447336 -1.152162 -6.350043 7.758379 -0.745807 -6.269287 -0.676930 -5.255737 -6.088574 1.387210 8.451420 -18.878251 -5.221416 -1.046157 -0.103963 0.470609 0.000000 0.000000 0.000000 6.656542 9.576891 -1.201064 -64.049623 16.037090 -2.327635 -2.240930 -49.113328 0.001651 -0.330172 0.100154 0.000577 -0.074174 0.109255 0.000000 0.000000 0.000000 0.000000 0.000000 0.000000 0.000000 6.257413 -18.531920 -0.598746 74.782343 -19.786166 -16.062441 4.536018 14.406677 0.015973 6.498436 6.991427 0.392084 0.109426 -0.018625 -0.000000 0.000000 0.000000 0.000000 0.000000 0.000000 0.000000 
2.761018 17.110147 1.145599 -41.284804 -60.751401 26.258489 -1.181614 -6.272376 7.813852 -0.761817 -6.184633 -0.668192 -5.259948 -6.006278 1.368418 8.509328 -18.776421 -5.252687 -1.031707 -0.102389 0.462138 0.000000 0.000000 0.000000 6.497636 9.865820 -1.173030 -64.701221 16.288944 -2.845733 -2.308856 -48.039525 0.001398 -0.213711 0.121398 0.000586 -0.078512 0.105199 0.000000 0.000000 0.000000 0.000000 0.000000 0.000000 0.000000 6.278505 -18.397110 -0.611621 74.415832 -19.456744 -16.948317 4.543293 13.817184 0.016905 6.304853 7.130185 0.387893 0.111722 -0.022560 -0.000000 0.000000 0.000000 0.000000 0.000000 0.000000 0.000000 
2.750133 17.113149 1.152888 -41.375938 -60.727122 26.013331 -1.251601 -6.206674 7.835569 -0.784837 -6.111716 -0.664343 -5.264477 -5.935503 1.355697 8.571313 -18.685427 -5.285048 -1.018333 -0.100895 0.453620 0.000000 0.000000 0.000000 6.352352 10.157210 -1.145662 -65.317817 16.552879 -3.357197 -2.374906 -47.000196 0.001171 -0.104709 0.139314 0.000593 -0.082511 0.101315 0.000000 0.000000 0.000000 0.000000 0.000000 0.000000 0.000000 6.312705 -18.280580 -0.627485 74.060328 -19.091171 -17.884334 4.545358 13.233383 0.017898 6.098546 7.294092 0.383602 0.113905 -0.026947 -0.000000 0.000000 0.000000 0.000000 0.000000 0.000000 0.000000 
2.739433 17.117509 1.158576 -41.352101 -60.674557 25.695920 -1.353837 -6.154499 7.842869 -0.813262 -6.052208 -0.662408 -5.268296 -5.877720 1.346059 8.633116 -18.610610 -5.321867 -1.005324 -0.099368 0.444110 0.000000 0.000000 0.000000 6.222195 10.441511 -1.117904 -65.896165 16.832398 -3.841044 -2.438340 -46.005969 0.000974 -0.006705 0.154513 0.000597 -0.086108 0.097614 0.000000 0.000000 0.000000 0.000000 0.000000 0.000000 0.000000 6.354465 -18.185321 -0.644505 73.720222 -18.715314 -18.786314 4.539157 12.714026 0.018876 5.873832 7.469043 0.378211 0.115883 -0.031494 -0.000000 0.000000 0.000000 0.000000 0.000000 0.000000 0.000000 
2.728635 17.122549 1.162518 -41.220767 -60.585166 25.291577 -1.481047 -6.116380 7.855240 -0.845574 -6.006696 -0.659183 -5.269908 -5.833347 1.337282 8.688498 -18.554952 -5.365100 -0.990811 -0.097628 0.432997 0.000000 0.000000 0.000000 6.108864 10.711189 -1.089209 -66.432876 17.131304 -4.274472 -2.498373 -45.064824 0.000810 0.076950 0.167784 0.000699 -0.089252 0.094086 0.000000 0.000000 0.000000 0.000000 0.000000 0.000000 0.000000 6.389417 -18.112528 -0.660132 73.405904 -18.339073 -19.631314 4.525617 12.271954 0.019821 5.645423 7.656839 0.372422 0.117571 -0.036099 -0.000000 0.000000 0.000000 0.000000 0.000000 0.000000 0.000000 
2.717245 17.127624 1.164496 -40.989081 -60.458369 24.791304 -1.631124 -6.090278 7.887667 -0.881541 -5.973092 -0.652365 -5.268395 -5.800170 1.326500 8.734825 -18.520880 -5.415654 -0.974002 -0.095595 0.419964 0.000000 0.000000 0.000000 6.018655 10.956724 -1.059478 -66.928658 17.456909 -4.640090 -2.554561 -44.184059 0.000683 0.142478 0.179207 0.000799 -0.091923 0.090708 0.000000 0.000000 0.000000 0.000000 0.000000 0.000000 0.000000 6.412787 -18.060787 -0.672761 73.123542 -17.993008 -20.324625 4.502660 11.968456 0.020632 5.410571 7.833363 0.364931 0.118906 -0.040382 -0.000000 0.000000 0.000000 0.000000 0.000000 0.000000 0.000000 
2.704814 17.132189 1.164360 -40.666258 -60.302707 24.195419 -1.804562 -6.072346 7.946960 -0.921367 -5.947502 -0.641055 -5.262914 -5.774277 1.312202 8.769382 -18.508723 -5.473436 -0.953617 -0.093169 0.405001 0.000000 0.000000 0.000000 5.956478 11.173865 -1.029032 -67.384706 17.813862 -4.922433 -2.606744 -43.367176 0.000596 0.186972 0.188636 0.000796 -0.094131 0.087436 0.000000 0.000000 0.000000 0.000000 0.000000 0.000000 0.000000 6.416458 -18.027052 -0.680770 72.879641 -17.692413 -20.821490 4.470971 11.825993 0.021270 5.177846 7.987312 0.355839 0.119855 -0.044146 -0.000000 0.000000 0.000000 0.000000 0.000000 0.000000 0.000000 
2.691119 17.135725 1.162065 -40.264997 -60.131277 23.513822 -2.001012 -6.058411 8.032168 -0.964794 -5.925815 -0.625523 -5.252308 -5.751636 1.294981 8.789006 -18.520162 -5.538259 -0.927797 -0.090212 0.388148 0.000000 0.000000 0.000000 5.925071 11.366499 -0.998571 -67.802392 18.197460 -5.107133 -2.655125 -42.609267 0.000549 0.209788 0.194246 0.000891 -0.095913 0.084247 0.000000 0.000000 0.000000 0.000000 0.000000 0.000000 0.000000 6.389091 -18.011325 -0.682911 72.678708 -17.429593 -21.128850 4.433548 11.820843 0.021758 4.964635 8.122973 0.346646 0.120404 -0.047401 -0.000000 0.000000 0.000000 0.000000 0.000000 0.000000 0.000000 
2.675712 17.138121 1.157669 -39.793980 -59.971597 22.766867 -2.226489 -6.040495 8.129294 -1.013286 -5.899982 -0.609168 -5.237345 -5.724479 1.273574 8.794531 -18.547729 -5.607019 -0.896721 -0.086797 0.370366 0.000000 0.000000 0.000000 5.922695 11.528877 -0.968958 -68.182800 18.621371 -5.201066 -2.700244 -41.918912 0.000547 0.205020 0.196719 0.000885 -0.097282 0.081019 0.000000 0.000000 0.000000 0.000000 0.000000 0.000000 0.000000 6.329611 -18.002194 -0.678248 72.520934 -17.213851 -21.265174 4.392692 11.947631 0.022110 4.787803 8.238015 0.338851 0.120521 -0.050175 -0.000000 0.000000 0.000000 0.000000 0.000000 0.000000 0.000000 
2.658507 17.139343 1.151478 -39.266880 -59.842387 21.982061 -2.479026 -6.012828 8.223806 -1.066460 -5.864337 -0.594874 -5.218610 -5.687410 1.249261 8.788360 -18.590686 -5.679164 -0.861040 -0.082987 0.351930 0.000000 0.000000 0.000000 5.947971 11.669793 -0.940651 -68.527515 19.075456 -5.203246 -2.743040 -41.287896 0.000590 0.173582 0.194115 0.000879 -0.098319 0.077716 0.000000 0.000000 0.000000 0.000000 0.000000 0.000000 0.000000 6.243768 -17.996718 -0.667678 72.396309 -17.049365 -21.189281 4.348367 12.218189 0.022292 4.641015 8.317300 0.331458 0.120261 -0.052307 -0.000000 0.000000 0.000000 0.000000 0.000000 0.000000 0.000000 
2.639634 17.139493 1.143913 -38.699603 -59.768149 21.188175 -2.757936 -5.968129 8.299119 -1.124632 -5.811547 -0.586240 -5.198185 -5.633411 1.221507 8.776219 -18.643172 -5.752923 -0.823205 -0.079006 0.333456 0.000000 0.000000 0.000000 5.995792 11.792694 -0.913959 -68.838614 19.557852 -5.128427 -2.784439 -40.715048 0.000675 0.114520 0.185671 0.000773 -0.099081 0.074272 0.000000 0.000000 0.000000 0.000000 0.000000 0.000000 0.000000 6.147325 -17.985125 -0.652725 72.290938 -16.953148 -20.860533 4.298796 12.668870 0.022239 4.510732 8.335115 0.322662 0.119678 -0.053613 -0.000000 0.000000 0.000000 0.000000 0.000000 0.000000 0.000000 
2.619445 17.138844 1.135517 -38.109279 -59.754355 20.410384 -3.051207 -5.906125 8.344888 -1.184887 -5.741559 -0.584815 -5.175708 -5.562706 1.194027 8.756939 -18.704099 -5.827564 -0.782635 -0.074826 0.315209 0.000000 0.000000 0.000000 6.056184 11.913701 -0.889036 -69.117597 20.049907 -4.984692 -2.825195 -40.186423 0.000800 0.031375 0.168920 0.000666 -0.099626 0.070720 0.000000 0.000000 0.000000 0.000000 0.000000 0.000000 0.000000 6.033941 -17.970165 -0.634361 72.193815 -16.881579 -20.369807 4.249153 13.205652 0.022095 4.413892 8.331359 0.315568 0.118828 -0.054489 -0.000000 0.000000 0.000000 0.000000 0.000000 0.000000 0.000000 
2.598257 17.137654 1.126747 -37.509596 -59.813146 19.667545 -3.353210 -5.823940 8.352590 -1.246505 -5.651406 -0.592306 -5.153135 -5.472528 1.166782 8.735421 -18.767615 -5.901466 -0.741950 -0.070675 0.297689 0.000000 0.000000 0.000000 6.120766 12.036713 -0.865789 -69.365484 20.547985 -4.792678 -2.865856 -39.700897 0.000954 -0.075085 0.144928 0.000560 -0.099986 0.067029 0.000000 0.000000 0.000000 0.000000 0.000000 0.000000 0.000000 5.918366 -17.945185 -0.614384 72.090360 -16.837124 -19.721745 4.198509 13.836297 0.021832 4.340554 8.292170 0.308772 0.117763 -0.054897 -0.000000 0.000000 0.000000 0.000000 0.000000 0.000000 0.000000 
2.576375 17.136281 1.117988 -36.913584 -59.945013 18.972034 -3.654967 -5.722331 8.319921 -1.307832 -5.541839 -0.608916 -5.131542 -5.363725 1.140616 8.714390 -18.828768 -5.973124 -0.702571 -0.066687 0.281286 0.000000 0.000000 0.000000 6.182269 12.167940 -0.844024 -69.583612 21.045227 -4.570579 -2.906641 -39.254219 0.001129 -0.201597 0.114718 0.000554 -0.100198 0.063219 0.000000 0.000000 0.000000 0.000000 0.000000 0.000000 0.000000 5.807048 -17.907297 -0.594434 71.969500 -16.806065 -18.957197 4.147957 14.529493 0.021503 4.288759 8.232880 0.302977 0.116533 -0.055006 -0.000000 0.000000 0.000000 0.000000 0.000000 0.000000 0.000000 
2.554125 17.134878 1.109416 -36.332675 -60.144148 18.328409 -3.948849 -5.603530 8.250478 -1.367611 -5.415070 -0.633620 -5.111915 -5.238468 1.115634 8.697694 -18.886293 -6.041906 -0.666305 -0.063005 0.266088 0.000000 0.000000 0.000000 6.237371 12.310937 -0.823619 -69.774544 21.536085 -4.334958 -2.947469 -38.842913 0.001312 -0.343697 0.079832 0.000548 -0.100299 0.059333 0.000000 0.000000 0.000000 0.000000 0.000000 0.000000 0.000000 5.711495 -17.856980 -0.576382 71.818851 -16.785250 -18.073172 4.095688 15.287474 0.021089 4.240588 8.145319 0.296382 0.115216 -0.054787 -0.000000 0.000000 0.000000 0.000000 0.000000 0.000000 0.000000 
2.531734 17.133612 1.101090 -35.774404 -60.400073 17.735042 -4.227361 -5.472358 8.149997 -1.424132 -5.276013 -0.664902 -5.093819 -5.101606 1.092804 8.683260 -18.936173 -6.105897 -0.632688 -0.059621 0.252495 0.000000 0.000000 0.000000 6.281184 12.467912 -0.804694 -69.939287 22.019298 -4.098049 -2.987885 -38.466077 0.001488 -0.496508 0.043119 0.000542 -0.100310 0.055420 0.000000 0.000000 0.000000 0.000000 0.000000 0.000000 0.000000 5.624305 -17.794809 -0.560495 71.641380 -16.745462 -17.174312 4.045803 16.037914 0.020703 4.213521 8.064315 0.291587 0.113807 -0.054609 -0.000000 0.000000 0.000000 0.000000 0.000000 0.000000 0.000000 
2.509096 17.132567 1.092853 -35.237340 -60.698892 17.181469 -4.487990 -5.333774 8.027795 -1.476872 -5.129650 -0.700535 -5.076920 -4.957933 1.072312 8.671728 -18.977951 -6.164258 -0.601805 -0.056548 0.240596 0.000000 0.000000 0.000000 6.316068 12.637900 -0.787326 -70.080552 22.495510 -3.869090 -3.027429 -38.123127 0.001647 -0.654472 0.007137 0.000736 -0.100275 0.051537 0.000000 0.000000 0.000000 0.000000 0.000000 0.000000 0.000000 5.546039 -17.723482 -0.547412 71.437430 -16.679304 -16.281742 3.998196 16.764950 0.020364 4.200302 7.997590 0.288392 0.112352 -0.054547 -0.000000 0.000000 0.000000 0.000000 0.000000 0.000000 0.000000 
